# xmcd
# 
# Track frame offsets:
#     150
#     20980
#     48792
#     68642
#     88415
#     137807
#     159240
# 
# Disc length: 2410
# 
# Revision: 39
# Processed by: cddbd v1.5.2PL0 Copyright (c) Steve Scherf et al.
# Submitted via: fre:ac v1.0.17
# 
DISCID=5a096807
DTITLE=Rush - Moving Pictures
DYEAR=1981
DGENRE=Pop
TTITLE0=Tom Sawyer
TTITLE1=Red Barchetta
TTITLE2=YYZ
TTITLE3=Limelight
TTITLE4=The Camera Eye
TTITLE5=Witch Hunt
TTITLE6=Vital Signs
EXTD=YEAR: 1981
EXTT0=
EXTT1=
EXTT2=
EXTT3=
EXTT4=
EXTT5=
EXTT6=
PLAYORDER=
